<?xml version="1.0" standalone="no"?>
<!DOCTYPE svg PUBLIC "-//W3C//DTD SVG 20010904//EN"
 "http://www.w3.org/TR/2001/REC-SVG-20010904/DTD/svg10.dtd">
<svg version="1.0" xmlns="http://www.w3.org/2000/svg"
 width="1623.000000pt" height="1623.000000pt" viewBox="0 0 1623.000000 1623.000000"
 preserveAspectRatio="xMidYMid meet">
<metadata>
Created by potrace 1.14, written by Peter Selinger 2001-2017
</metadata>
<g transform="translate(0.000000,1623.000000) scale(0.100000,-0.100000)"
fill="#000000" stroke="none">
<path d="M7190 15406 c-64 -18 -94 -40 -131 -97 -31 -48 -32 -49 -51 -32 -11
10 -35 39 -55 65 -26 37 -41 48 -61 48 -15 0 -38 1 -50 1 -36 0 -72 -28 -72
-57 0 -42 24 -86 90 -164 53 -65 60 -76 46 -85 -9 -5 -53 -36 -98 -67 -44 -32
-84 -58 -88 -58 -10 0 -28 -48 -32 -85 l-3 -30 63 3 c56 3 62 2 62 -16 0 -31
24 -44 64 -36 35 6 36 5 36 -26 0 -17 -4 -39 -10 -49 -12 -22 -40 -157 -40
-191 0 -15 -6 -32 -12 -39 -8 -7 -14 -45 -15 -99 -3 -111 -6 -142 -22 -170
-16 -29 -49 -186 -50 -237 0 -43 -1 -48 -26 -145 -9 -36 -18 -83 -21 -105 -3
-22 -10 -71 -15 -110 -6 -38 -15 -99 -19 -135 -5 -36 -12 -76 -16 -90 -4 -14
-9 -50 -11 -80 -2 -30 -8 -64 -13 -75 -4 -11 -13 -63 -19 -115 -18 -149 -32
-223 -48 -248 -20 -32 -87 -92 -126 -111 -17 -9 -38 -28 -45 -43 -7 -16 -19
-28 -27 -28 -7 0 -21 -20 -30 -44 -12 -31 -24 -46 -39 -48 -15 -2 -24 -14 -31
-43 -5 -22 -20 -49 -32 -60 -12 -11 -36 -45 -52 -77 -16 -31 -47 -81 -70 -110
-23 -30 -41 -59 -41 -63 0 -5 -18 -31 -41 -57 -22 -27 -38 -55 -36 -63 7 -17
-18 -39 -34 -30 -7 5 -9 1 -5 -12 4 -13 -4 -35 -23 -64 -20 -28 -28 -52 -25
-65 4 -15 -3 -30 -20 -47 -14 -14 -26 -34 -26 -43 0 -10 -8 -27 -19 -38 -19
-22 -37 -55 -97 -180 -20 -43 -52 -94 -70 -113 -31 -32 -32 -34 -14 -41 18 -7
15 -10 -17 -27 -65 -33 -98 -70 -53 -58 33 9 23 -16 -15 -38 -38 -23 -41 -30
-23 -58 15 -25 -4 -51 -32 -44 -31 8 -25 -25 8 -39 l27 -12 -37 -4 c-37 -3
-48 -14 -28 -27 21 -13 14 -29 -40 -92 -8 -10 -5 -13 14 -13 14 0 28 -5 31
-10 8 -13 -30 -47 -68 -62 -32 -12 -31 -31 1 -36 26 -4 28 -15 7 -32 -8 -7
-15 -21 -15 -31 0 -10 -4 -20 -9 -24 -6 -3 -20 -25 -32 -50 -16 -32 -20 -54
-16 -85 4 -29 1 -43 -8 -46 -7 -3 -18 -26 -25 -52 -6 -26 -15 -54 -20 -63 -5
-10 -4 -21 1 -26 6 -6 4 -14 -6 -23 -8 -7 -15 -25 -15 -41 0 -16 -4 -37 -10
-47 -20 -37 -100 -290 -100 -318 0 -16 -7 -39 -15 -51 -15 -21 -45 -114 -59
-178 -4 -16 -8 -60 -9 -96 -1 -48 -7 -73 -19 -86 -10 -11 -18 -29 -18 -40 0
-11 -7 -26 -14 -33 -11 -8 -12 -18 -6 -36 9 -21 7 -24 -16 -24 -23 0 -25 -3
-19 -29 4 -21 2 -30 -10 -35 -13 -4 -14 -10 -5 -26 7 -12 7 -20 1 -20 -6 0
-24 -21 -42 -46 -25 -37 -30 -50 -21 -63 48 -70 80 -193 59 -227 -3 -5 -8 -27
-11 -49 -12 -72 -23 -76 -129 -49 -50 13 -99 24 -109 24 -9 0 -18 4 -20 8 -1
4 -52 18 -113 31 -60 13 -137 32 -170 43 -33 11 -67 20 -75 20 -48 -1 -126 28
-178 66 -31 22 -34 23 -46 7 -11 -15 -17 -15 -57 -5 -24 7 -62 21 -84 30 -45
20 -140 31 -323 36 -95 2 -130 7 -150 20 -14 9 -42 18 -61 20 -20 1 -48 6 -62
9 -18 5 -36 1 -53 -10 -20 -13 -54 -18 -149 -21 -67 -2 -126 -4 -132 -4 -5 0
-61 2 -122 6 -100 6 -113 5 -113 -10 0 -8 -10 -18 -22 -20 -13 -3 -36 -8 -53
-11 -42 -9 -105 -37 -105 -47 0 -11 -86 -48 -110 -48 -10 0 -45 11 -78 26 -48
21 -61 31 -71 60 -9 25 -23 40 -47 50 -37 16 -44 30 -16 36 14 3 11 7 -13 23
-44 27 -85 67 -85 81 0 18 -40 44 -69 44 -13 0 -30 8 -38 18 -22 27 -67 125
-64 143 1 8 -16 35 -37 60 -32 37 -91 144 -92 167 -1 17 -42 55 -48 45 -4 -6
-16 -13 -27 -17 -12 -3 -41 -27 -65 -52 -43 -44 -44 -46 -17 -40 20 5 27 3 27
-9 0 -8 -6 -15 -13 -15 -8 0 -21 -8 -30 -18 -22 -24 -23 -120 -3 -148 9 -11
12 -30 9 -46 -4 -21 -2 -28 11 -28 20 0 21 -14 1 -30 -20 -17 -19 -45 6 -124
11 -37 18 -79 15 -94 -13 -73 -20 -91 -40 -100 -21 -9 -21 -10 6 -22 16 -7 28
-17 28 -22 0 -12 -24 -10 -38 4 -8 8 -12 8 -12 1 0 -6 7 -16 15 -23 39 -32 -9
-41 -65 -12 -52 26 -211 189 -247 252 -45 78 -139 173 -164 165 -10 -4 -28 0
-40 8 -67 47 -111 -72 -78 -213 6 -25 17 -79 24 -120 15 -84 36 -158 49 -179
5 -8 8 -37 7 -63 -2 -33 2 -50 11 -53 9 -4 13 -21 12 -48 -1 -23 5 -54 12 -68
10 -20 10 -29 1 -38 -8 -8 -8 -11 1 -11 7 0 12 -8 12 -19 0 -32 22 -81 36 -81
8 0 14 -5 14 -12 0 -6 3 -8 6 -5 4 4 0 17 -8 29 -21 32 -33 88 -19 88 19 0 46
-34 58 -73 9 -30 9 -40 -3 -52 -12 -12 -12 -15 3 -24 17 -10 16 -10 -2 -11
-16 0 -14 -4 13 -21 17 -12 33 -26 34 -32 0 -7 2 -16 2 -22 3 -17 20 -40 41
-51 14 -8 19 -20 17 -42 -3 -25 1 -31 25 -39 l28 -10 -30 -15 c-16 -9 -28 -18
-26 -20 5 -5 -31 -80 -49 -103 -9 -11 -38 -76 -65 -145 -26 -69 -53 -132 -60
-140 -7 -8 -16 -28 -20 -45 -12 -44 -12 -45 -15 -50 -1 -3 -3 -9 -4 -14 0 -5
-4 -13 -8 -17 -5 -4 -8 -14 -8 -22 0 -7 -16 -49 -35 -93 -19 -43 -43 -114 -54
-157 -21 -81 -23 -93 -46 -240 -15 -98 -36 -176 -54 -208 -15 -28 -41 -111
-41 -134 0 -11 -4 -20 -9 -20 -9 0 -13 -29 -13 -92 0 -21 -4 -38 -9 -38 -5 0
-7 -12 -3 -27 7 -34 7 -33 3 -106 -1 -32 -5 -60 -9 -62 -5 -3 -9 -31 -10 -62
-3 -105 -7 -150 -14 -162 -4 -6 -5 -11 -2 -11 3 0 -3 -15 -13 -34 -14 -24 -16
-37 -8 -45 6 -6 12 -19 13 -28 2 -10 5 -30 8 -45 2 -16 0 -30 -5 -34 -5 -3 -6
-11 -2 -17 4 -6 6 -27 4 -46 -1 -19 3 -47 9 -62 9 -21 9 -33 -1 -51 -7 -12
-12 -27 -10 -33 2 -5 5 -35 7 -65 1 -30 5 -75 7 -100 3 -25 9 -73 13 -108 4
-34 11 -65 15 -68 5 -3 9 -16 9 -29 0 -13 5 -27 11 -30 5 -4 8 -12 6 -18 -2
-7 3 -32 11 -57 8 -25 15 -56 17 -69 5 -35 37 -91 52 -91 7 0 13 -4 13 -10 0
-5 -4 -10 -9 -10 -12 0 6 -58 24 -80 7 -8 15 -31 19 -51 4 -21 13 -42 21 -49
8 -7 15 -20 15 -29 0 -9 9 -22 20 -29 12 -7 18 -17 15 -22 -3 -6 -1 -10 5 -10
18 0 37 -23 33 -41 -4 -16 101 -149 118 -149 5 0 9 -9 9 -20 0 -11 3 -20 8
-20 4 0 18 -17 32 -38 49 -73 180 -192 213 -193 12 0 16 -3 10 -6 -16 -6 -17
-23 -2 -23 10 0 23 -9 101 -71 14 -12 24 -28 21 -35 -3 -8 1 -14 11 -14 9 0
16 -4 16 -9 0 -5 11 -12 25 -15 14 -4 47 -27 73 -51 26 -25 49 -45 52 -45 3 0
43 -36 88 -80 45 -44 87 -80 92 -80 6 0 10 -6 10 -13 0 -17 59 -73 87 -81 11
-4 24 -13 27 -21 3 -8 19 -21 36 -30 18 -9 45 -32 62 -51 17 -19 36 -34 44
-34 8 0 14 -6 14 -14 0 -7 20 -19 45 -26 25 -7 45 -17 45 -21 0 -5 6 -9 13 -9
7 0 18 -9 25 -20 7 -11 19 -20 27 -20 19 0 115 -72 115 -86 0 -7 20 -27 44
-45 24 -19 52 -46 63 -61 10 -16 23 -28 28 -28 9 0 32 -18 170 -134 22 -18 49
-50 60 -70 11 -21 31 -43 45 -50 80 -41 97 -52 118 -73 13 -14 22 -37 22 -55
0 -32 0 -32 -55 -14 -11 4 -6 -1 12 -10 18 -10 35 -24 38 -32 3 -9 15 -76 25
-151 26 -176 27 -187 35 -246 3 -27 9 -66 12 -85 15 -100 25 -634 13 -700 -4
-25 -19 -90 -33 -145 -51 -198 -86 -351 -92 -400 -4 -27 -14 -79 -22 -115 -11
-46 -13 -65 -4 -68 6 -2 8 -9 4 -15 -4 -6 -8 -52 -9 -103 -1 -50 -7 -109 -14
-130 -6 -21 -13 -94 -16 -162 -6 -129 6 -211 32 -233 7 -6 12 -15 9 -19 -3 -4
2 -13 10 -20 8 -7 13 -16 10 -20 -3 -4 8 -13 24 -20 18 -7 34 -24 40 -41 5
-16 16 -32 24 -35 9 -3 12 -14 10 -28 -4 -22 -1 -24 36 -24 51 -1 64 -8 56
-33 -11 -33 32 -23 119 29 159 95 206 103 499 87 59 -3 134 -13 165 -21 71
-20 65 -19 135 -5 73 16 88 40 64 101 l-16 41 51 107 c82 174 130 256 173 295
31 28 86 54 129 60 61 10 86 31 87 75 0 20 4 46 8 57 13 32 -5 85 -40 121 -18
19 -76 62 -128 96 -52 35 -104 71 -115 81 -45 39 -174 136 -217 163 -25 16
-67 43 -94 59 -26 17 -75 52 -109 78 -34 27 -78 57 -98 68 -53 27 -120 74
-145 101 -35 38 -89 294 -84 403 1 34 -3 74 -10 90 -7 17 -13 41 -14 55 -2 14
-6 48 -10 75 -10 61 -13 302 -4 316 6 10 38 -12 101 -70 21 -18 46 -40 57 -47
11 -8 37 -31 58 -52 21 -20 65 -55 97 -77 33 -22 69 -47 81 -55 127 -87 231
-150 247 -150 9 0 18 -3 20 -7 5 -13 91 -69 133 -88 22 -10 90 -41 150 -70 62
-30 131 -56 159 -60 27 -3 64 -12 83 -20 52 -22 240 -75 266 -75 12 0 33 -12
46 -25 12 -14 27 -23 31 -20 5 3 21 -1 37 -9 78 -39 110 -48 133 -36 18 10 25
9 41 -9 12 -12 32 -21 50 -21 17 0 39 -5 50 -10 15 -8 23 -7 35 5 10 10 21 12
32 6 9 -4 23 -6 30 -4 8 3 16 -4 19 -16 6 -24 14 -26 31 -9 9 9 17 9 36 -1 13
-8 29 -10 35 -7 18 11 53 -4 47 -20 -8 -20 11 -17 49 6 38 24 89 23 290 -6 66
-10 137 -17 157 -16 20 1 49 -5 64 -13 23 -12 31 -11 60 2 25 12 39 14 56 6
16 -7 28 -7 40 0 25 17 74 -3 71 -29 -11 -82 -12 -139 -2 -150 17 -20 -20 -78
-52 -82 -29 -4 -89 -33 -89 -44 0 -5 -6 -8 -13 -8 -13 0 -111 -59 -137 -83
-28 -25 -111 -77 -124 -77 -7 0 -24 -9 -38 -19 -13 -11 -37 -23 -51 -26 -15
-4 -30 -11 -33 -16 -3 -5 -15 -9 -27 -9 -17 0 -19 -3 -8 -9 11 -7 9 -10 -8
-16 -11 -3 -21 -11 -21 -16 0 -5 -7 -9 -15 -9 -21 0 -66 -30 -60 -40 3 -5 -4
-11 -15 -15 -11 -3 -20 -13 -20 -21 0 -9 -11 -14 -36 -14 -31 0 -35 -2 -24
-15 11 -13 7 -15 -24 -15 -24 0 -36 -5 -36 -14 0 -8 -19 -20 -42 -28 -30 -9
-44 -19 -46 -33 -3 -21 -62 -65 -87 -65 -9 0 -27 -7 -40 -16 -21 -14 -23 -19
-13 -38 7 -11 13 -31 13 -43 2 -27 20 -50 46 -58 11 -4 43 -29 71 -57 61 -60
308 -257 412 -327 26 -19 77 -55 112 -81 34 -27 73 -51 86 -55 42 -13 168
-126 168 -151 0 -6 7 -17 15 -24 9 -7 13 -15 11 -18 -3 -2 13 -19 36 -38 26
-20 47 -48 58 -76 20 -55 53 -64 87 -22 18 24 32 29 92 35 49 5 75 13 90 28
21 21 94 46 123 42 9 -1 19 3 23 10 6 8 10 8 16 -2 6 -10 13 -11 31 -1 13 6
56 14 96 16 41 3 80 10 87 16 8 7 23 9 35 5 12 -4 20 -2 20 5 0 6 4 9 9 6 13
-8 72 5 66 14 -6 9 19 20 43 20 14 0 14 -2 3 -9 -10 -7 -7 -9 12 -8 14 1 23 6
19 11 -3 5 5 6 19 2 13 -3 46 -11 74 -16 27 -6 54 -15 59 -20 11 -11 117 -12
156 -1 26 7 41 41 18 41 -23 0 15 20 39 20 16 0 21 4 17 15 -4 9 -1 15 7 15 8
0 6 5 -6 13 -10 8 -15 18 -12 24 4 5 -4 21 -16 34 -12 13 -20 31 -19 41 2 10
-2 18 -8 18 -6 0 -8 4 -5 10 3 5 -19 43 -49 85 -31 41 -56 77 -56 80 0 9 -84
127 -120 168 -20 23 -54 67 -75 97 -51 74 -123 165 -161 205 -18 18 -45 52
-60 76 -16 24 -40 57 -54 72 -14 16 -25 34 -25 40 0 6 -20 26 -45 45 -25 19
-48 42 -52 52 -8 22 -134 150 -148 150 -6 0 -8 -4 -5 -10 3 -5 1 -10 -4 -10
-6 0 -11 3 -12 8 0 4 -2 18 -5 31 -4 25 22 147 57 262 26 86 83 160 141 183
33 14 43 15 50 4 6 -10 10 -10 16 -1 4 7 38 17 74 23 37 5 95 19 130 30 35 11
73 20 84 20 12 0 27 7 34 15 7 8 28 17 49 20 20 3 50 12 66 19 17 7 53 20 80
29 63 19 118 40 125 47 11 13 128 59 164 66 22 4 49 17 60 29 12 12 32 26 46
30 14 4 41 18 60 31 19 13 48 25 64 28 17 3 39 16 50 30 12 14 40 30 62 36 23
5 45 17 48 25 3 8 14 15 24 15 10 0 29 11 42 25 13 14 29 25 37 25 7 0 13 4
13 9 0 5 14 14 31 21 87 37 216 138 245 193 8 15 26 32 39 37 14 5 25 16 25
25 0 8 7 15 16 15 20 0 84 65 84 85 0 7 4 15 10 17 10 3 40 54 96 165 20 39
42 74 49 77 8 3 17 22 21 43 3 21 14 46 22 56 21 24 23 44 6 51 -18 7 -18 26
0 26 29 0 41 32 41 110 0 43 5 83 11 91 11 13 17 51 29 202 4 38 10 79 15 92
5 13 6 25 3 28 -3 3 0 28 5 54 16 70 21 143 27 383 3 118 7 244 10 279 2 35
-1 89 -6 119 -5 36 -5 58 1 62 11 7 5 145 -8 182 -5 13 -6 34 -2 48 5 22 12
25 60 27 119 5 232 2 248 -6 9 -5 55 -9 101 -10 47 -1 89 -5 95 -8 5 -4 60
-10 120 -15 207 -15 251 -20 258 -32 6 -8 8 -7 8 2 0 8 7 11 18 8 9 -3 49 -8
87 -11 39 -4 77 -8 85 -10 8 -2 42 -7 75 -10 101 -10 287 -34 336 -43 29 -6
53 -5 64 1 24 13 89 11 114 -5 12 -7 24 -23 27 -35 3 -12 14 -25 24 -28 10 -3
20 -18 23 -34 3 -15 17 -42 31 -59 15 -16 26 -35 26 -41 0 -6 8 -19 18 -29 35
-35 63 -82 56 -93 -4 -7 -3 -9 3 -6 12 8 36 -17 26 -26 -3 -4 1 -9 10 -13 9
-3 14 -11 11 -19 -5 -13 21 -45 36 -45 5 0 7 -7 4 -15 -4 -8 -1 -15 6 -15 10
0 10 -3 1 -14 -10 -12 -7 -18 13 -31 14 -10 26 -23 26 -30 0 -7 7 -18 15 -25
8 -7 15 -21 15 -31 0 -11 4 -19 8 -19 5 0 15 -12 23 -27 15 -31 65 -103 118
-173 19 -25 40 -58 47 -75 7 -16 31 -50 53 -74 23 -24 41 -50 41 -57 0 -14 29
-70 48 -93 8 -9 31 -43 53 -76 22 -33 55 -83 73 -111 31 -46 54 -84 93 -154
21 -38 82 -130 93 -140 3 -3 6 -12 8 -20 5 -21 51 -80 63 -80 5 0 8 -3 8 -7
-3 -21 3 -41 23 -73 12 -19 23 -40 24 -47 1 -6 11 -22 23 -34 12 -13 21 -28
21 -35 0 -7 4 -14 8 -16 5 -1 23 -24 41 -50 17 -27 36 -48 41 -48 6 0 10 -4
10 -9 0 -5 18 -36 40 -69 22 -33 40 -65 40 -71 0 -6 5 -11 11 -11 5 0 8 -4 5
-9 -6 -9 48 -61 63 -61 18 0 56 -43 53 -61 -2 -13 1 -17 11 -14 8 4 19 -5 27
-22 14 -28 26 -43 64 -83 22 -22 103 -50 147 -50 49 0 179 31 232 56 115 52
256 141 311 195 17 17 66 49 109 71 47 24 76 46 73 53 -3 8 14 16 49 24 29 7
63 21 76 32 19 16 38 23 60 21 3 -1 30 19 60 44 30 24 69 50 87 56 17 7 32 15
32 18 0 3 61 42 135 86 90 53 138 88 147 105 6 14 34 39 62 54 67 38 156 103
156 115 0 6 20 15 45 22 28 8 40 15 32 20 -7 5 -1 8 17 8 22 0 27 4 22 16 -5
12 -2 15 9 10 18 -7 95 22 95 35 0 5 8 9 18 9 15 1 15 2 -2 11 -14 9 -15 13
-5 19 10 7 10 11 0 24 -10 12 -7 20 21 45 18 17 48 33 66 37 18 3 37 15 43 25
7 13 21 19 47 20 26 0 32 3 19 8 -17 6 -17 8 -3 20 9 7 16 18 16 23 0 13 35
42 95 78 146 89 267 223 370 409 11 20 25 39 30 43 6 5 5 8 -2 8 -18 0 -16 17
5 38 21 21 28 84 8 76 -7 -3 -30 9 -51 26 -21 16 -42 30 -47 30 -5 0 -6 5 -3
11 4 5 -1 19 -10 29 -9 10 -20 33 -25 52 -4 18 -9 40 -11 48 -2 8 -19 28 -36
44 -18 16 -33 35 -33 41 0 6 -20 40 -45 76 -25 35 -45 69 -45 75 0 6 -9 19
-20 29 -12 11 -27 33 -35 50 -8 16 -25 42 -38 55 -54 62 -107 129 -107 138 0
5 -16 22 -35 36 -19 15 -35 32 -35 37 0 6 -14 31 -32 57 -18 26 -31 49 -29 51
1 2 -1 7 -6 10 -13 9 -83 99 -83 106 0 11 -123 195 -131 195 -4 0 -9 10 -13
23 -3 12 -23 40 -45 62 -22 22 -40 45 -41 50 0 6 -14 19 -30 30 -16 11 -30 25
-30 30 0 6 -16 42 -35 80 l-36 69 27 23 c15 13 33 23 41 23 7 0 13 8 14 18 0
9 2 41 2 69 2 42 7 56 25 68 22 16 30 45 12 45 -5 0 -10 5 -10 10 0 6 7 10 16
10 8 0 12 4 9 10 -3 5 2 10 12 10 17 1 17 1 0 11 -13 8 -15 14 -7 30 12 22 10
109 -2 109 -5 0 -6 11 -2 24 4 16 1 25 -11 30 -10 3 -15 12 -11 21 3 10 -1 15
-12 15 -13 0 -14 2 -3 9 7 5 9 11 4 14 -4 3 -7 37 -6 75 2 68 1 70 -32 101
-19 17 -35 38 -35 46 0 35 -75 138 -254 349 -22 27 -47 57 -54 67 -7 11 -18
19 -23 19 -6 0 -35 27 -66 60 -41 43 -64 60 -82 60 -21 0 -23 2 -11 10 8 5 11
10 5 10 -5 0 -18 14 -27 30 -10 18 -25 30 -38 30 -12 0 -20 7 -20 18 0 9 -18
28 -40 41 -21 14 -37 28 -34 33 4 5 -3 12 -15 15 -12 3 -21 9 -21 14 0 5 -24
32 -52 60 -38 35 -64 51 -91 56 -30 4 -35 8 -26 19 9 11 6 18 -12 34 -13 10
-30 19 -36 20 -7 0 -13 4 -13 8 0 5 -8 19 -17 31 -10 11 -27 32 -38 46 -11 14
-28 25 -37 25 -10 0 -18 4 -18 9 0 12 -50 37 -90 46 -25 6 -29 9 -19 21 9 11
9 14 -1 14 -7 0 -21 11 -32 25 -11 14 -24 23 -29 19 -5 -3 -23 6 -40 20 -17
14 -36 26 -44 26 -7 0 -15 9 -18 20 -5 20 -21 29 -94 51 -24 7 -43 16 -43 21
0 5 -4 7 -9 4 -5 -3 -28 10 -52 29 -24 19 -49 35 -56 35 -7 0 -18 10 -24 22
-22 41 -67 78 -93 78 -24 0 -49 10 -84 35 -8 6 -37 35 -66 65 -112 119 -188
190 -211 196 -13 3 -26 12 -29 20 -3 8 -12 14 -19 14 -8 0 -33 18 -56 40 -22
22 -48 40 -56 40 -8 0 -15 6 -15 14 0 17 -79 71 -126 86 -19 7 -34 16 -34 21
0 12 -37 12 -45 -1 -4 -6 -12 -7 -18 -3 -7 4 -18 8 -24 8 -7 0 -13 4 -13 8 1
12 -62 67 -71 62 -3 -3 -17 3 -30 13 -13 10 -35 23 -49 30 -14 7 -47 26 -75
42 -27 16 -57 32 -65 35 -91 41 -211 104 -221 118 -3 5 -25 11 -48 14 -29 4
-38 9 -29 14 10 7 10 9 -3 9 -9 0 -26 9 -38 19 -13 11 -37 23 -54 26 -53 11
-128 53 -206 116 -41 32 -78 59 -82 59 -4 0 -10 11 -13 24 -3 13 -23 36 -43
52 -35 27 -65 52 -88 75 -5 5 -23 22 -39 37 -64 58 -105 108 -198 240 -104
147 -146 204 -165 227 -7 7 -13 20 -13 27 0 7 -10 25 -22 38 -34 38 -68 88
-68 99 0 6 -8 15 -17 20 -16 9 -16 12 -3 21 22 14 28 13 42 -10 7 -11 17 -20
23 -20 5 0 39 -20 75 -45 43 -29 101 -56 170 -78 99 -33 360 -162 417 -207 14
-11 36 -20 49 -20 22 0 93 -28 104 -41 15 -18 232 -109 260 -109 10 0 25 -7
34 -15 8 -8 20 -15 26 -15 6 0 39 -14 73 -31 47 -23 78 -31 127 -33 40 -2 83
-11 112 -25 26 -11 51 -21 57 -21 5 0 11 -4 13 -10 4 -13 96 -16 109 -3 16 16
21 64 8 79 -6 8 -8 14 -5 14 4 0 -2 13 -13 29 -12 16 -21 33 -21 38 0 6 -9 18
-20 28 -11 10 -20 24 -20 32 0 23 -43 80 -119 156 -39 40 -75 77 -80 82 -76
81 -272 245 -292 245 -9 0 -19 7 -23 15 -3 8 -13 15 -22 15 -17 0 -41 18 -147
109 -34 29 -75 59 -90 66 -16 6 -28 15 -28 18 2 20 0 27 -8 27 -6 0 -22 11
-37 25 -15 14 -33 25 -41 25 -8 0 -12 4 -9 9 4 7 -35 33 -54 35 -3 1 -12 7
-20 13 -57 48 -105 84 -151 113 -79 50 -223 165 -304 244 -38 38 -113 100
-165 139 -52 39 -148 122 -212 186 -64 64 -139 137 -166 162 -41 38 -50 54
-56 92 -4 26 -11 49 -16 52 -10 6 -70 124 -70 138 0 5 -12 23 -26 40 -14 17
-23 38 -21 48 3 10 -1 23 -9 30 -8 6 -14 18 -14 26 0 24 -38 90 -67 115 -30
26 -47 49 -63 85 -5 12 -23 41 -40 64 -16 23 -30 47 -30 54 0 7 -9 20 -20 30
-11 10 -20 22 -20 28 0 12 -33 41 -76 68 -18 11 -42 34 -53 52 -44 68 -69 103
-85 116 -9 7 -16 18 -16 23 0 18 -167 208 -183 208 -4 0 -24 15 -43 34 -20 19
-55 44 -80 55 -24 12 -44 26 -44 31 0 6 -4 10 -9 10 -5 0 -23 14 -41 30 -19
18 -56 37 -89 46 -31 8 -68 20 -84 26 -27 11 -117 102 -117 119 0 12 -52 93
-62 97 -5 2 -8 8 -8 12 0 5 -14 33 -32 62 -20 34 -32 68 -33 95 -2 42 -46 129
-90 177 -76 83 -195 280 -195 323 0 8 -16 42 -36 75 -24 39 -39 78 -43 111 -6
49 -8 52 -38 55 -26 3 -38 13 -71 65 -22 34 -72 125 -112 202 -39 77 -76 145
-80 150 -5 6 -34 60 -65 120 -31 61 -70 127 -86 147 -16 20 -29 44 -29 52 0 8
-4 18 -10 21 -21 13 -8 36 29 51 45 18 67 58 56 101 -8 35 -91 114 -148 142
-23 12 -51 28 -61 36 -19 15 -19 15 1 37 12 13 38 52 57 86 42 74 48 135 17
152 -23 12 -23 12 -81 -4z m683 -5131 c88 -23 139 -44 252 -104 21 -11 45 -21
52 -21 7 0 36 -23 64 -50 47 -45 55 -50 85 -44 24 4 40 1 61 -14 36 -26 98
-115 117 -170 8 -23 31 -74 51 -114 20 -40 43 -95 52 -123 8 -27 22 -61 31
-75 9 -14 15 -40 13 -59 -1 -18 2 -38 7 -45 5 -6 28 -60 51 -119 32 -80 41
-111 32 -120 -15 -15 -14 -27 3 -27 8 0 17 -11 20 -25 4 -14 11 -25 16 -25 6
0 10 -12 10 -26 0 -14 8 -38 19 -52 17 -26 37 -96 32 -116 -3 -12 3 -26 52
-127 20 -41 37 -85 37 -98 0 -12 7 -35 15 -52 9 -16 20 -48 24 -72 15 -71 54
-221 63 -242 5 -11 19 -51 32 -90 30 -86 60 -121 111 -131 33 -6 41 -4 57 16
11 14 16 30 12 39 -4 9 -6 23 -5 31 0 8 2 52 4 98 4 88 15 114 37 87 30 -36
82 -3 62 39 -8 18 -16 22 -36 19 -29 -6 -37 14 -10 24 12 4 13 8 3 14 -7 4
-20 4 -30 -1 -19 -11 -29 -4 -29 22 0 11 7 18 19 18 24 0 34 25 16 40 -26 21
-49 86 -56 160 -5 41 -10 89 -12 105 -3 17 -10 73 -17 125 -6 52 -14 102 -17
110 -5 13 -10 50 -16 102 -3 26 18 26 21 1 2 -13 7 -23 12 -23 4 0 11 -11 14
-25 3 -13 16 -29 27 -35 34 -19 59 -48 46 -53 -8 -3 -5 -10 8 -20 17 -13 18
-19 8 -36 -14 -22 -2 -37 22 -27 8 3 15 1 15 -3 0 -5 -6 -11 -12 -14 -7 -2 4
-14 25 -27 26 -15 35 -26 28 -33 -7 -7 -6 -17 1 -31 7 -13 12 -88 13 -196 1
-96 5 -186 9 -198 4 -13 5 -39 2 -57 -5 -27 -12 -34 -39 -40 -29 -6 -30 -8
-12 -16 25 -12 45 -67 49 -134 4 -67 17 -146 26 -165 4 -8 4 -25 -1 -37 -7
-19 -16 -23 -49 -23 -22 0 -40 5 -40 10 0 7 -26 10 -67 8 -48 -1 -78 3 -102
15 -19 10 -32 14 -28 11 9 -9 -12 -46 -23 -39 -5 3 -11 1 -15 -5 -3 -5 -21
-10 -38 -10 -18 0 -45 -7 -60 -15 -16 -8 -56 -15 -90 -16 -34 -1 -81 -10 -105
-20 -24 -10 -52 -17 -64 -16 -19 3 -88 -16 -112 -31 -6 -3 -17 -7 -26 -8 -8
-1 -42 -9 -75 -17 -33 -8 -85 -18 -115 -22 -30 -4 -86 -16 -125 -28 -38 -11
-78 -22 -87 -23 -57 -5 -108 -18 -148 -36 -25 -12 -58 -23 -75 -25 -16 -2 -48
-11 -69 -21 -30 -12 -40 -14 -44 -4 -2 6 -9 12 -16 12 -23 0 -209 208 -263
294 -14 23 -36 51 -48 64 -13 12 -42 60 -65 107 -24 46 -49 86 -56 89 -8 3
-11 12 -8 20 3 8 0 25 -7 38 -7 13 -12 28 -11 35 1 6 -8 20 -21 30 -13 10 -22
24 -19 31 4 14 -45 139 -65 163 -7 8 -13 23 -13 32 0 9 -9 50 -20 90 -23 84
-30 194 -19 288 4 36 4 65 -1 67 -5 2 -7 17 -3 33 3 17 0 35 -7 44 -8 10 -9
15 -1 15 6 0 10 10 9 23 -1 12 6 43 15 68 9 26 14 55 11 65 -3 11 6 33 20 52
29 40 25 58 -16 67 -29 7 -29 7 -11 27 16 18 31 111 34 211 0 9 11 28 24 41
16 16 22 31 18 44 -4 15 7 34 38 67 24 26 49 63 55 84 6 21 27 70 47 111 21
40 37 74 37 76 0 2 -9 4 -20 4 -27 0 -25 8 8 45 16 16 35 49 42 73 7 23 19 42
25 42 7 0 18 7 25 15 7 8 24 15 39 15 14 0 33 5 41 10 26 17 115 11 213 -15z"/>
<path d="M5225 1011 c-3 -5 10 -21 28 -35 44 -34 134 -44 192 -22 36 13 37 15
13 15 -15 1 -30 -3 -33 -9 -3 -5 -13 -10 -22 -10 -12 0 -13 3 -4 14 10 12 3
16 -39 25 -28 6 -60 11 -71 11 -11 0 -29 5 -39 10 -12 6 -21 6 -25 1z"/>
<path d="M5463 993 c9 -2 23 -2 30 0 6 3 -1 5 -18 5 -16 0 -22 -2 -12 -5z"/>
<path d="M6466 205 c-3 -9 0 -15 9 -15 16 0 20 16 6 24 -5 3 -11 -1 -15 -9z"/>
<path d="M6447 174 c-13 -13 -7 -24 14 -24 11 0 19 5 17 12 -5 14 -22 21 -31
12z"/>
</g>
</svg>
